# xmcd CD database file
#
# Track frame offsets:
#	150
#	28404
#	58016
#	79891
#	108539
#	140909
#	181088
#
# Disc length: 2743 seconds
#
# Revision: 0
# Processed by: cddbd v1.4PL0 Copyright (c) Steve Scherf et al.
# Submitted via: CDex 1.50
#
DISCID=640ab507
DTITLE=Teresa Russel - Up Against The Wall
DYEAR=1900
DGENRE=Blues
TTITLE0=Up Against The Wall
TTITLE1=Just Outside
TTITLE2=Why Baby Why
TTITLE3=I'm Leavin' You
TTITLE4=Left Me With The Blues
TTITLE5=He's So Cool
TTITLE6=Data Track
EXTD=
EXTT0=
EXTT1=
EXTT2=
EXTT3=
EXTT4=
EXTT5=
EXTT6=
PLAYORDER=
